{"title":"Escape Plan 2013 R6 HDRIP Xvid - !di0T [P2PDL]","uid":9267823,"size":1155948727,"categoryP":"video","categoryS":"movies","magnet":"?xt=urn:btih:fec21e3c2528d586c165477de9280745bf4573ff&amp;dn=Escape+Plan+2013+R6+HDRIP+Xvid+-+%21di0T+%5BP2PDL%5D&amp;tr=udp%3A%2F%2Ftracker.openbittorrent.com%3A80&amp;tr=udp%3A%2F%2Fopen.demonii.com%3A1337&amp;tr=udp%3A%2F%2Ftracker.coppersurfer.tk%3A6969&amp;tr=udp%3A%2F%2Fexodus.desync.com%3A6969","seeders":1,"leechers":1,"uploader":"TeX","files":2,"time":1385724727,"description":"[img]http://imageshack.us/a/img43/1034/7mxv.jpg[/img]\n\n[url]http://www.imdb.com/title/tt1211956/[/url]\n\n[b]PLOT:[/b]\n\n[quote]When a structural-security authority finds himself set up and incarcerated in the world's most secret and secure prison, he has to use his skills to escape with help from the inside. [/quote]\n\nEncoded by Kely258\n\nGeneral\nComplete name                            : Escape Plan 2013 R6 HDRIP Xvid - !di0T/Escape Plan 2013 R6 HDRIP Xvid - !di0T.avi\nFormat                                   : AVI\nFormat/Info                              : Audio Video Interleave\nFormat profile                           : OpenDML\nFile size                                : 1.08 GiB\nDuration                                 : 1h 46mn\nOverall bit rate                         : 1 441 Kbps\nWriting application                      : Lavf52.39.1\n\nVideo\nID                                       : 0\nFormat                                   : xvid\nCodec ID                                 : xvid\nDuration                                 : 1h 46mn\nBit rate                                 : 1 361 Kbps\nWidth                                    : 720 pixels\nHeight                                   : 408 pixels\nDisplay aspect ratio                     : 16:9\nFrame rate                               : 25.000 fps\nBits/(Pixel*Frame)                       : 0.185\nStream size                              : 1.02 GiB (94%)\n\nAudio\nID                                       : 1\nFormat                                   : MPEG Audio\nFormat version                           : Version 1\nFormat profile                           : Layer 3\nMode                                     : Joint stereo\nMode extension                           : MS Stereo\nCodec ID                                 : 55\nCodec ID/Hint                            : MP3\nDuration                                 : 1h 46mn\nBit rate mode                            : Constant\nBit rate                                 : 64.0 Kbps\nChannel(s)                               : 2 channels\nSampling rate                            : 44.1 KHz\nCompression mode                         : Lossy\nStream size                              : 49.0 MiB (4%)\nAlignment                                : Aligned on interleaves\nInterleave, duration                     : 26 ms (0.65 video frame)\nInterleave, preload duration             : 26 ms\nWriting library                          : LAMEUUULAME3.96.1\n\n\n[img]http://i.imgur.com/XfPkbrp.png[/img]\n[img]http://i.imgur.com/PCWPpXF.png[/img]\n[img]http://i.imgur.com/CcE8uHT.png[/img]\n[img]http://i.imgur.com/Pd6DahS.png[/img]\n[img]http://i.imgur.com/TX5pFmS.png[/img]","torrent":{"xt":"urn:btih:fec21e3c2528d586c165477de9280745bf4573ff","amp;dn":"Escape+Plan+2013+R6+HDRIP+Xvid+-+%21di0T+%5BP2PDL%5D","amp;tr":["udp%3A%2F%2Ftracker.openbittorrent.com%3A80","udp%3A%2F%2Fopen.demonii.com%3A1337","udp%3A%2F%2Ftracker.coppersurfer.tk%3A6969","udp%3A%2F%2Fexodus.desync.com%3A6969"],"infoHash":"fec21e3c2528d586c165477de9280745bf4573ff","infoHashBuffer":{"type":"Buffer","data":[254,194,30,60,37,40,213,134,193,101,71,125,233,40,7,69,191,69,115,255]},"announce":[],"urlList":[]}}